HIERARCHY
ROOT Root
{
  OFFSET 0.0 0.0 0.0
  CHANNELS 6 Xposition Yposition Zposition Zrotation Yrotation Xrotation
  JOINT Hips
  {
    OFFSET 0.0 100.0 0.0
    CHANNELS 6 Xposition Yposition Zposition Zrotation Yrotation Xrotation
    JOINT Spine1
    {
      OFFSET 5.003913 -0.037094 -0.013727
      CHANNELS 3 Zrotation Yrotation Xrotation
      JOINT Spine2
      {
        OFFSET 7.125363 -1e-06 0.0
        CHANNELS 3 Zrotation Yrotation Xrotation
        JOINT Chest
        {
          OFFSET 7.594027 1e-06 0.0
          CHANNELS 3 Zrotation Yrotation Xrotation
          JOINT Neck1
          {
            OFFSET 26.313086 -0.460272 -0.181672
            CHANNELS 3 Zrotation Yrotation Xrotation
            JOINT Neck2
            {
              OFFSET 8.045911 0.0 0.0
              CHANNELS 3 Zrotation Yrotation Xrotation
              JOINT Head
              {
                OFFSET 6.432774 0.0 0.0
                CHANNELS 3 Zrotation Yrotation Xrotation
                JOINT HeadEnd
                {
                  OFFSET 16.169773 0.06451 0.00362
                  CHANNELS 3 Zrotation Yrotation Xrotation
                }
                JOINT Jaw
                {
                  OFFSET 0.108741 3.12938 0.002639
                  CHANNELS 3 Zrotation Yrotation Xrotation
                }
                JOINT LeftEye
                {
                  OFFSET 4.45173 8.166359 3.206392
                  CHANNELS 3 Zrotation Yrotation Xrotation
                }
                JOINT RightEye
                {
                  OFFSET 4.436895 8.135758 -3.222429
                  CHANNELS 3 Zrotation Yrotation Xrotation
                }
              }
            }
          }
          JOINT LeftShoulder
          {
            OFFSET 23.218927 5.195579 1.621656
            CHANNELS 3 Zrotation Yrotation Xrotation
            JOINT LeftArm
            {
              OFFSET 15.902118 2e-06 -2e-06
              CHANNELS 3 Zrotation Yrotation Xrotation
              JOINT LeftForeArm
              {
                OFFSET 28.739307 0.0 -1e-06
                CHANNELS 3 Zrotation Yrotation Xrotation
                JOINT LeftHand
                {
                  OFFSET 27.093981 -4e-06 0.0
                  CHANNELS 3 Zrotation Yrotation Xrotation
                  JOINT LeftHandThumb1
                  {
                    OFFSET 2.276781 3.380274 0.83384
                    CHANNELS 3 Zrotation Yrotation Xrotation
                    JOINT LeftHandThumb2
                    {
                      OFFSET 4.705309 -1e-06 -1e-06
                      CHANNELS 3 Zrotation Yrotation Xrotation
                      JOINT LeftHandThumb3
                      {
                        OFFSET 2.798515 0.0 3e-06
                        CHANNELS 3 Zrotation Yrotation Xrotation
                        JOINT LeftHandThumbEnd
                        {
                          OFFSET 3.180793 4e-06 -4e-06
                          CHANNELS 3 Zrotation Yrotation Xrotation
                        }
                      }
                    }
                  }
                  JOINT LeftHandIndex1
                  {
                    OFFSET 3.247786 2.352677 0.137192
                    CHANNELS 3 Zrotation Yrotation Xrotation
                    JOINT LeftHandIndex2
                    {
                      OFFSET 6.367095 1e-06 0.0
                      CHANNELS 3 Zrotation Yrotation Xrotation
                      JOINT LeftHandIndex3
                      {
                        OFFSET 3.662364 0.0 0.0
                        CHANNELS 3 Zrotation Yrotation Xrotation
                        JOINT LeftHandIndex4
                        {
                          OFFSET 2.329242 4e-06 -4e-06
                          CHANNELS 3 Zrotation Yrotation Xrotation
                          JOINT LeftHandIndexEnd
                          {
                            OFFSET 2.767823 1e-06 0.0
                            CHANNELS 3 Zrotation Yrotation Xrotation
                          }
                        }
                      }
                    }
                  }
                  JOINT LeftHandMiddle1
                  {
                    OFFSET 3.163612 0.945023 -0.406112
                    CHANNELS 3 Zrotation Yrotation Xrotation
                    JOINT LeftHandMiddle2
                    {
                      OFFSET 6.276789 3e-06 0.0
                      CHANNELS 3 Zrotation Yrotation Xrotation
                      JOINT LeftHandMiddle3
                      {
                        OFFSET 4.35652 -1e-06 4e-06
                        CHANNELS 3 Zrotation Yrotation Xrotation
                        JOINT LeftHandMiddle4
                        {
                          OFFSET 2.996877 0.0 8e-06
                          CHANNELS 3 Zrotation Yrotation Xrotation
                          JOINT LeftHandMiddleEnd
                          {
                            OFFSET 2.323256 3e-06 -4e-06
                            CHANNELS 3 Zrotation Yrotation Xrotation
                          }
                        }
                      }
                    }
                  }
                  JOINT LeftHandRing1
                  {
                    OFFSET 2.882606 -0.309162 0.107445
                    CHANNELS 3 Zrotation Yrotation Xrotation
                    JOINT LeftHandRing2
                    {
                      OFFSET 6.033198 0.0 4e-06
                      CHANNELS 3 Zrotation Yrotation Xrotation
                      JOINT LeftHandRing3
                      {
                        OFFSET 4.350578 3e-06 0.0
                        CHANNELS 3 Zrotation Yrotation Xrotation
                        JOINT LeftHandRing4
                        {
                          OFFSET 2.651321 2e-06 -7e-06
                          CHANNELS 3 Zrotation Yrotation Xrotation
                          JOINT LeftHandRingEnd
                          {
                            OFFSET 1.937663 1e-06 -4e-06
                            CHANNELS 3 Zrotation Yrotation Xrotation
                          }
                        }
                      }
                    }
                  }
                  JOINT LeftHandPinky1
                  {
                    OFFSET 2.865315 -1.525436 0.575687
                    CHANNELS 3 Zrotation Yrotation Xrotation
                    JOINT LeftHandPinky2
                    {
                      OFFSET 5.54936 1e-06 -8e-06
                      CHANNELS 3 Zrotation Yrotation Xrotation
                      JOINT LeftHandPinky3
                      {
                        OFFSET 3.070974 0.0 -4e-06
                        CHANNELS 3 Zrotation Yrotation Xrotation
                        JOINT LeftHandPinky4
                        {
                          OFFSET 1.549672 1e-06 0.0
                          CHANNELS 3 Zrotation Yrotation Xrotation
                          JOINT LeftHandPinkyEnd
                          {
                            OFFSET 1.952123 0.0 0.0
                            CHANNELS 3 Zrotation Yrotation Xrotation
                          }
                        }
                      }
                    }
                  }
                }
              }
            }
          }
          JOINT RightShoulder
          {
            OFFSET 23.161716 5.296122 -1.380114
            CHANNELS 3 Zrotation Yrotation Xrotation
            JOINT RightArm
            {
              OFFSET -16.027195 -2e-06 1.1e-05
              CHANNELS 3 Zrotation Yrotation Xrotation
              JOINT RightForeArm
              {
                OFFSET -28.736639 4e-06 2e-06
                CHANNELS 3 Zrotation Yrotation Xrotation
                JOINT RightHand
                {
                  OFFSET -27.133619 6e-06 0.0
                  CHANNELS 3 Zrotation Yrotation Xrotation
                  JOINT RightHandThumb1
                  {
                    OFFSET -2.274328 -3.351035 -0.83067
                    CHANNELS 3 Zrotation Yrotation Xrotation
                    JOINT RightHandThumb2
                    {
                      OFFSET -4.703594 -3e-06 2e-06
                      CHANNELS 3 Zrotation Yrotation Xrotation
                      JOINT RightHandThumb3
                      {
                        OFFSET -2.794935 -4e-06 -3e-06
                        CHANNELS 3 Zrotation Yrotation Xrotation
                        JOINT RightHandThumbEnd
                        {
                          OFFSET -3.183852 4e-06 1e-06
                          CHANNELS 3 Zrotation Yrotation Xrotation
                        }
                      }
                    }
                  }
                  JOINT RightHandIndex1
                  {
                    OFFSET -3.253496 -2.33755 -0.127667
                    CHANNELS 3 Zrotation Yrotation Xrotation
                    JOINT RightHandIndex2
                    {
                      OFFSET -6.344434 0.0 0.0
                      CHANNELS 3 Zrotation Yrotation Xrotation
                      JOINT RightHandIndex3
                      {
                        OFFSET -3.654871 0.0 -8e-06
                        CHANNELS 3 Zrotation Yrotation Xrotation
                        JOINT RightHandIndex4
                        {
                          OFFSET -2.327586 -1e-06 0.0
                          CHANNELS 3 Zrotation Yrotation Xrotation
                          JOINT RightHandIndexEnd
                          {
                            OFFSET -2.770001 3e-06 8e-06
                            CHANNELS 3 Zrotation Yrotation Xrotation
                          }
                        }
                      }
                    }
                  }
                  JOINT RightHandMiddle1
                  {
                    OFFSET -3.168223 -0.944764 0.411762
                    CHANNELS 3 Zrotation Yrotation Xrotation
                    JOINT RightHandMiddle2
                    {
                      OFFSET -6.266691 -1e-06 -4e-06
                      CHANNELS 3 Zrotation Yrotation Xrotation
                      JOINT RightHandMiddle3
                      {
                        OFFSET -4.348901 0.0 0.0
                        CHANNELS 3 Zrotation Yrotation Xrotation
                        JOINT RightHandMiddle4
                        {
                          OFFSET -3.00024 2e-06 -4e-06
                          CHANNELS 3 Zrotation Yrotation Xrotation
                          JOINT RightHandMiddleEnd
                          {
                            OFFSET -2.321477 -4e-06 -4e-06
                            CHANNELS 3 Zrotation Yrotation Xrotation
                          }
                        }
                      }
                    }
                  }
                  JOINT RightHandRing1
                  {
                    OFFSET -2.885654 0.293261 -0.119232
                    CHANNELS 3 Zrotation Yrotation Xrotation
                    JOINT RightHandRing2
                    {
                      OFFSET -6.032835 -1e-06 -4e-06
                      CHANNELS 3 Zrotation Yrotation Xrotation
                      JOINT RightHandRing3
                      {
                        OFFSET -4.33881 0.0 -4e-06
                        CHANNELS 3 Zrotation Yrotation Xrotation
                        JOINT RightHandRing4
                        {
                          OFFSET -2.654903 -4e-06 -4e-06
                          CHANNELS 3 Zrotation Yrotation Xrotation
                          JOINT RightHandRingEnd
                          {
                            OFFSET -1.935122 0.0 4e-06
                            CHANNELS 3 Zrotation Yrotation Xrotation
                          }
                        }
                      }
                    }
                  }
                  JOINT RightHandPinky1
                  {
                    OFFSET -2.866241 1.503904 -0.60527
                    CHANNELS 3 Zrotation Yrotation Xrotation
                    JOINT RightHandPinky2
                    {
                      OFFSET -5.553177 -2e-06 0.0
                      CHANNELS 3 Zrotation Yrotation Xrotation
                      JOINT RightHandPinky3
                      {
                        OFFSET -3.062664 -1e-06 -4e-06
                        CHANNELS 3 Zrotation Yrotation Xrotation
                        JOINT RightHandPinky4
                        {
                          OFFSET -1.546529 2e-06 4e-06
                          CHANNELS 3 Zrotation Yrotation Xrotation
                          JOINT RightHandPinkyEnd
                          {
                            OFFSET -1.952341 0.0 -4e-06
                            CHANNELS 3 Zrotation Yrotation Xrotation
                          }
                        }
                      }
                    }
                  }
                }
              }
            }
          }
        }
      }
    }
    JOINT LeftLeg
    {
      OFFSET -8.443107 2.567604 10.043214
      CHANNELS 3 Zrotation Yrotation Xrotation
      JOINT LeftShin
      {
        OFFSET 43.229198 1e-06 -1e-06
        CHANNELS 3 Zrotation Yrotation Xrotation
        JOINT LeftFoot
        {
          OFFSET 42.298611 1e-06 1e-06
          CHANNELS 3 Zrotation Yrotation Xrotation
          JOINT LeftToeBase
          {
            OFFSET 14.165858 1e-06 0.0
            CHANNELS 3 Zrotation Yrotation Xrotation
            JOINT LeftToeEnd
            {
              OFFSET 6.7141 -0.234461 0.0
              CHANNELS 3 Zrotation Yrotation Xrotation
            }
          }
        }
      }
    }
    JOINT RightLeg
    {
      OFFSET -8.303923 2.592729 -10.047278
      CHANNELS 3 Zrotation Yrotation Xrotation
      JOINT RightShin
      {
        OFFSET -43.369682 0.0 1e-06
        CHANNELS 3 Zrotation Yrotation Xrotation
        JOINT RightFoot
        {
          OFFSET -42.260784 4e-06 2e-06
          CHANNELS 3 Zrotation Yrotation Xrotation
          JOINT RightToeBase
          {
            OFFSET -14.222245 -2e-06 -1e-06
            CHANNELS 3 Zrotation Yrotation Xrotation
            JOINT RightToeEnd
            {
              OFFSET -6.660062 0.232574 -2e-06
              CHANNELS 3 Zrotation Yrotation Xrotation
            }
          }
        }
      }
    }
  }
}
MOTION
Frames: 5
Frame Time: 0.03333333333333333
0.0 0.0 0.0 0.0 -0.0 0.0 -19.112093 48.509441 127.727547 79.219803 -65.893936 99.268463 8.419839 1.041523 0.697467 -5.971673 -0.162836 0.669875 21.224388 3.190833 1.078242 19.896374 -1.916957 2.712229 -2.791126 -0.539406 -1.327096 -24.704277 -2.040442 -2.878714 5e-06 -0.0 -0.0 -0.268663 -0.086453 0.025747 -0.059908 0.051496 0.114874 0.061452 -0.222728 -0.070019 -41.170689 -53.898415 44.28516 103.442749 -0.414584 -27.744061 6.905607 -0.404469 0.027638 90.746979 77.60527 88.162598 17.636627 -26.322735 52.411213 -19.466661 -14.395602 29.410395 -1e-06 -8.774822 -1e-06 15.615514 -18.298838 5.776504 -0.609777 -1.795653 -3.889328 -4.807089 -11.046807 -2.937851 4e-06 -20.976019 -1e-06 -5.019972 -25.03356 -4.031882 6e-06 -0.0 0.0 -10.634535 -5.68697 -3.565588 10.573277 -17.922949 -3.113902 2e-06 -13.821209 1e-06 -0.501778 -31.181505 -4.027016 -9.97412 -58.103062 6.229752 -13.982717 -7.150198 -2.875042 13.772733 -8.401489 -3.218243 0.347733 -34.211555 0.771656 -0.963029 -17.73337 2.62102 -0.0 -2e-06 -1e-06 -17.346422 -20.095217 -4.201783 21.757561 -1.638375 3.866427 1e-06 -6.338822 1e-06 -1.697589 -22.59174 -6.194006 1e-06 -3e-06 -2e-06 168.43605 -69.46302 12.87323 65.411095 8.460815 -67.548256 35.965473 1.581617 -0.045345 57.837414 58.262489 59.682419 22.182119 -20.375895 49.933323 -16.701815 -16.743526 28.476536 -3e-06 -12.690601 1e-06 15.13396 -18.120699 2.803299 -0.105919 -1.513856 -4.275883 -5.039041 -5.612871 -2.953557 5e-06 -11.020525 -2e-06 -6.111297 -15.895332 -3.840472 0.0 0.0 1e-06 -10.283371 -5.68029 -4.341841 11.028294 -11.302406 -2.372633 -1.384269 -14.238581 -6.320121 -0.625437 -26.924189 -3.827604 -3.509369 -48.465729 -4.631386 -13.708527 -7.363477 -3.720941 18.14115 -14.052739 -3.242676 6e-06 -18.78727 -3e-06 -0.429712 -8.456043 2.555504 0.0 -0.0 1e-06 -15.923536 -20.094486 -5.473588 30.41921 -7.190827 1.735926 2e-06 -8.162926 0.0 -1.861903 -22.861469 -6.167944 -1e-06 -2e-06 -1e-06 138.652451 -9.962819 -0.708518 87.683113 -3.320983 0.151811 -55.659603 4.06914 -8.481243 -10.155609 1.42358 2.833444 -0.999999 0.0 -0.0 -67.057877 4.334728 0.573644 109.96656 -0.079295 -0.160971 -75.065048 3.385915 -1.353641 -26.029816 0.903914 1.265009 -1.000001 0.0 -0.0 
0.0 0.0 0.0 0.0 -0.0 0.0 -19.421732 48.905048 128.678375 79.692276 -66.125153 100.08416 8.63533 0.846892 0.6098 -5.884147 -0.058813 0.675936 21.16091 2.590177 0.933263 20.254461 -1.252589 2.565375 -2.792967 -0.556565 -1.607496 -24.856995 -2.638623 -3.243 6e-06 -0.0 -0.0 -0.26054 -0.061329 0.022571 -0.072714 0.043954 0.105926 0.04778 -0.167388 -0.066969 -40.853539 -54.431427 44.039734 103.887688 0.225446 -26.674713 6.982949 -0.384698 0.003354 93.122124 77.438171 91.646942 17.63662 -26.322721 52.411179 -19.466652 -14.395594 29.410378 -1e-06 -8.774819 -2e-06 15.541937 -18.338089 5.860095 -0.609776 -1.795653 -3.889327 -4.807087 -11.046805 -2.93785 5e-06 -20.976013 -1e-06 -5.019968 -25.033554 -4.03188 6e-06 -1e-06 -0.0 -10.634531 -5.686969 -3.565587 10.573271 -17.922945 -3.1139 3e-06 -13.821205 1e-06 -0.501775 -31.181494 -4.027014 -10.024299 -58.175194 6.211649 -13.98271 -7.150197 -2.875042 13.772726 -8.401489 -3.21824 0.347735 -34.211536 0.771655 -0.963028 -17.733364 2.621018 -0.0 -1e-06 -1e-06 -17.346413 -20.095213 -4.201782 21.757551 -1.638376 3.866427 1e-06 -6.338822 1e-06 -1.697588 -22.591736 -6.194005 0.0 -4e-06 -2e-06 169.216309 -67.739838 11.905091 63.416496 12.379242 -66.913414 28.919001 0.868804 -0.177254 51.139606 59.967873 51.452404 22.182119 -20.375902 49.933323 -16.701813 -16.74353 28.476532 -4e-06 -12.690601 1e-06 15.549087 -18.053089 2.509418 -0.105919 -1.513857 -4.275881 -5.039041 -5.61287 -2.953557 6e-06 -11.020525 -1e-06 -6.111297 -15.895334 -3.840472 0.0 0.0 -0.0 -10.283369 -5.680288 -4.341838 11.028296 -11.302406 -2.372633 -1.384268 -14.238582 -6.320121 -0.625438 -26.924192 -3.8276 -3.478539 -48.747894 -4.512265 -13.708527 -7.363477 -3.720938 18.14115 -14.052739 -3.242675 6e-06 -18.787271 -2e-06 -0.429711 -8.456043 2.555504 -0.0 1e-06 1e-06 -15.923536 -20.094484 -5.473583 30.419222 -7.190827 1.735925 2e-06 -8.162926 1e-06 -1.861902 -22.861473 -6.167942 0.0 -3e-06 -1e-06 133.991745 -8.98652 -0.2959 95.757126 -2.908635 -0.018015 -57.033043 2.726577 -8.062951 -10.29616 1.456913 2.885975 -1.0 0.0 0.0 -66.109489 3.696734 0.745979 108.47332 0.247579 -0.167706 -74.569649 3.091057 -1.556904 -26.210573 0.881244 1.271623 -1.000001 -0.0 -0.0 
0.0 0.0 0.0 0.0 -0.0 0.0 -19.768507 49.249123 129.731812 79.992828 -66.338303 101.013245 8.853445 0.639556 0.510466 -5.834544 -0.049981 0.66955 21.168982 2.027459 0.777114 20.523281 -0.449818 2.549273 -2.79598 -0.639288 -1.84803 -24.933777 -3.135697 -3.522337 6e-06 -0.0 0.0 -0.260864 -0.057382 0.019507 -0.10059 0.020634 0.091924 0.016435 -0.138254 -0.057713 -40.705982 -54.938171 43.956173 104.280472 0.762565 -25.721169 7.254393 -0.387645 -0.007567 95.654961 76.984573 95.025238 17.636641 -26.322742 52.411213 -19.466665 -14.395604 29.410398 -1e-06 -8.774825 -2e-06 15.47627 -18.344738 5.9217 -0.609776 -1.795654 -3.889329 -4.807091 -11.046813 -2.937852 5e-06 -20.976023 -1e-06 -5.019972 -25.033562 -4.031883 6e-06 1e-06 -0.0 -10.634538 -5.686973 -3.565589 10.573278 -17.922956 -3.113902 2e-06 -13.821214 1e-06 -0.501776 -31.181511 -4.027017 -10.114612 -58.185699 6.213571 -13.98272 -7.150199 -2.875043 13.772736 -8.401495 -3.218243 0.347735 -34.211559 0.771656 -0.963029 -17.733376 2.621021 -0.0 -2e-06 -0.0 -17.346426 -20.095224 -4.201784 21.757568 -1.638373 3.86643 1e-06 -6.338826 1e-06 -1.69759 -22.591751 -6.194008 1e-06 -4e-06 -2e-06 169.360565 -66.702347 11.926408 62.261074 14.516046 -65.563454 24.357798 0.177079 -0.235858 45.677628 60.737034 45.384384 22.182125 -20.375898 49.933323 -16.701815 -16.743528 28.476532 -2e-06 -12.690605 -0.0 15.916482 -17.921036 2.284826 -0.10592 -1.513857 -4.275882 -5.039042 -5.612873 -2.953556 4e-06 -11.020527 0.0 -6.111302 -15.895338 -3.840472 -1e-06 0.0 1e-06 -10.283374 -5.680289 -4.341839 11.028296 -11.302407 -2.372632 -1.38427 -14.238585 -6.320121 -0.625438 -26.924194 -3.827604 -3.522795 -48.931629 -4.3864 -13.708529 -7.363478 -3.72094 18.141155 -14.052743 -3.242674 5e-06 -18.787275 -2e-06 -0.429712 -8.456047 2.555504 0.0 -1e-06 1e-06 -15.923539 -20.094486 -5.473584 30.419224 -7.190828 1.735927 2e-06 -8.162928 0.0 -1.861904 -22.861475 -6.167943 -2e-06 -3e-06 -0.0 129.290482 -7.901532 0.250912 103.018158 -2.383575 -0.079535 -58.190739 1.46298 -7.581477 -10.311445 1.499573 2.920617 -0.999998 0.0 0.0 -64.995895 3.100655 0.787112 106.875397 0.606385 -0.17447 -74.299683 2.719836 -1.64655 -26.244505 0.852022 1.291545 -1.000002 0.0 -0.0 
0.0 0.0 0.0 0.0 -0.0 0.0 -20.141462 49.515366 130.828445 80.263336 -66.423569 101.802635 9.083513 0.401251 0.409218 -5.787183 -0.113791 0.672298 21.270308 1.515653 0.63802 20.749704 0.320525 2.598646 -2.806573 -0.730182 -1.996789 -24.873585 -3.501207 -3.748882 6e-06 0.0 -0.0 -0.264181 -0.073191 0.017772 -0.1315 -0.008033 0.07746 -0.017049 -0.142576 -0.045669 -40.665043 -55.416828 43.942326 104.618401 1.154781 -25.034695 7.539268 -0.418068 -0.005871 97.532974 76.241257 97.400261 17.636627 -26.322723 52.411175 -19.466652 -14.395594 29.410378 -1e-06 -8.774821 -2e-06 15.438354 -18.292799 5.907053 -0.609776 -1.795653 -3.889327 -4.807088 -11.046807 -2.937849 4e-06 -20.976013 0.0 -5.019971 -25.033546 -4.031878 6e-06 -0.0 -0.0 -10.634533 -5.686968 -3.565586 10.573272 -17.922945 -3.113899 2e-06 -13.821205 2e-06 -0.501778 -31.181498 -4.027013 -10.186922 -58.089188 6.19082 -13.982712 -7.150196 -2.875041 13.772727 -8.401489 -3.21824 0.347733 -34.211544 0.771656 -0.963029 -17.733366 2.621019 -0.0 -1e-06 -1e-06 -17.346416 -20.095213 -4.201779 21.757555 -1.638374 3.866428 2e-06 -6.338822 1e-06 -1.69759 -22.591738 -6.194004 -0.0 -4e-06 -2e-06 169.028732 -66.168114 12.587771 61.934689 15.450388 -64.240906 21.5889 -0.357305 -0.255507 42.118504 61.291645 41.853188 22.182117 -20.375896 49.933323 -16.701817 -16.74353 28.476538 -3e-06 -12.690601 -1e-06 16.209764 -17.743715 2.135163 -0.10592 -1.513857 -4.27588 -5.039041 -5.612872 -2.953558 4e-06 -11.020523 -1e-06 -6.111296 -15.89533 -3.840472 -0.0 -2e-06 1e-06 -10.283371 -5.680288 -4.341839 11.028296 -11.302406 -2.372634 -1.384268 -14.23858 -6.320122 -0.625437 -26.924187 -3.827602 -3.574435 -49.039364 -4.283753 -13.708525 -7.363474 -3.72094 18.141148 -14.052739 -3.242675 6e-06 -18.78727 -1e-06 -0.429711 -8.45604 2.555504 -1e-06 1e-06 0.0 -15.923536 -20.094481 -5.473588 30.41921 -7.190826 1.735927 2e-06 -8.162925 -0.0 -1.861902 -22.861464 -6.167941 0.0 -2e-06 -2e-06 124.731972 -6.821003 0.82461 109.220161 -1.821949 -0.038658 -59.134964 0.467639 -6.989125 -10.341286 1.567637 2.929199 -0.999999 -0.0 -0.0 -63.687759 2.684783 0.778321 105.223557 0.950805 -0.183123 -73.919876 2.389181 -1.584537 -26.183779 0.821741 1.315185 -1.000002 0.0 0.0 
0.0 0.0 0.0 0.0 -0.0 0.0 -20.523726 49.672001 131.943619 80.564461 -66.331596 102.286911 9.32975 0.1412 0.311048 -5.714235 -0.195725 0.701385 21.430395 0.986973 0.531563 21.011234 1.022451 2.683341 -2.809813 -0.83219 -2.08519 -24.757442 -3.794927 -3.88627 6e-06 0.0 0.0 -0.26518 -0.080736 0.013942 -0.156314 -0.024132 0.062428 -0.046248 -0.142548 -0.038153 -40.65881 -55.852448 43.952854 104.868492 1.370955 -24.572454 7.791299 -0.457918 0.002836 98.981789 75.354904 99.172768 17.636633 -26.322741 52.411213 -19.466665 -14.395602 29.410395 -0.0 -8.774822 -2e-06 15.381035 -18.235352 5.872809 -0.609776 -1.795654 -3.889329 -4.807089 -11.046813 -2.937851 4e-06 -20.976021 -0.0 -5.019972 -25.033562 -4.031882 6e-06 -0.0 -0.0 -10.634537 -5.686972 -3.565589 10.573277 -17.922951 -3.113901 2e-06 -13.821211 1e-06 -0.501778 -31.181511 -4.027016 -10.175854 -57.946507 6.120918 -13.982716 -7.150199 -2.875043 13.772731 -8.401493 -3.218242 0.347733 -34.211559 0.771656 -0.96303 -17.733374 2.62102 -0.0 -0.0 0.0 -17.34642 -20.095221 -4.201784 21.757561 -1.638374 3.866428 1e-06 -6.338825 1e-06 -1.69759 -22.591751 -6.194006 -0.0 -3e-06 -2e-06 168.30545 -65.915009 13.634764 62.33881 15.670718 -62.936382 19.725443 -0.700319 -0.258382 39.739941 62.17337 39.78751 22.182104 -20.375893 49.933319 -16.701813 -16.743528 28.476532 -2e-06 -12.690598 0.0 16.413019 -17.610016 2.086774 -0.105919 -1.513856 -4.275882 -5.039039 -5.612872 -2.953557 3e-06 -11.020523 -3e-06 -6.111296 -15.895332 -3.84047 -0.0 0.0 -0.0 -10.283367 -5.680288 -4.341838 11.028292 -11.302404 -2.372634 -1.384268 -14.238581 -6.320121 -0.625437 -26.924187 -3.827603 -3.6672 -49.18742 -4.174083 -13.708518 -7.363476 -3.720939 18.141146 -14.052739 -3.242676 6e-06 -18.78727 -2e-06 -0.429712 -8.456043 2.555503 0.0 1e-06 -0.0 -15.92353 -20.094482 -5.473586 30.419201 -7.190824 1.735924 0.0 -8.162924 -1e-06 -1.861901 -22.861471 -6.167943 -0.0 -1e-06 0.0 120.352234 -5.916884 1.333075 114.537971 -1.283699 0.070721 -59.931496 -0.314181 -6.249826 -10.473506 1.652626 2.906923 -0.999995 -0.0 -1e-06 -62.1586 2.541215 0.78886 103.567543 1.264392 -0.187624 -73.431664 2.090464 -1.382802 -25.934372 0.797063 1.328215 -1.000003 0.0 0.0 
